ply
format ascii 1.0
element vertex 19
property float x
property float y
property float z
end_header
1.27228 -0.0752092 0.780495
1.91589 -0.0572177 5.50304
1.65238 -0.0757026 7.14307
0.827529 -0.0642833 8.76929
-0.257175 -0.0109773 9.99787
-8.30667 -0.0413799 13.3567
-11.3019 -0.0369915 12.4672
-12.5468 0.00379436 11.623
-13.6381 -0.00658739 10.6972
-15.6455 -0.000754637 7.66858
-16.2165 0.0298101 3.42881
-11.8177 0.011729 -2.92028
-10.8702 -1.00444e-08 -3.53509
-9.35858 -0.0279009 -4.12643
-7.85578 -0.0436282 -4.30389
-5.72621 -0.0171895 -4.23091
-3.94145 -0.00378505 -3.7422
-1.35073 0.0433857 -2.35063
-0.465803 0.00149898 -1.70272
