ply
format ascii 1.0
element vertex 36
property float x
property float y
property float z
property uchar diffuse_red
property uchar diffuse_green
property uchar diffuse_blue
end_header
0.548028 0.00174892 -0.330329 0 255 0
1.74466 -0.0689185 2.41828 0 255 0
1.27228 -0.0752092 0.780495 255 0 255
1.90814 -0.0541175 3.88565 0 255 0
1.91589 -0.0572177 5.50304 255 0 255
1.65238 -0.0757026 7.14307 255 0 255
0.827529 -0.0642833 8.76929 255 0 255
-0.257175 -0.0109773 9.99787 255 0 255
-1.61665 -0.00444931 11.3369 0 255 0
-2.96698 0.0345687 12.1219 0 255 0
-4.74589 -2.32512e-08 12.9754 0 255 0
-6.42271 0.000704423 13.3296 0 255 0
-8.30667 -0.0413799 13.3567 255 0 255
-9.63302 -0.0423277 13.0819 0 255 0
-11.3019 -0.0369915 12.4672 255 0 255
-12.5468 0.00379436 11.623 255 0 255
-13.6381 -0.00658739 10.6972 255 0 255
-14.9222 0.000789668 8.98396 0 255 0
-15.6455 -0.000754637 7.66858 255 0 255
-15.9332 0.01803 6.57015 0 255 0
-16.2979 0.00280815 4.75049 0 255 0
-16.2165 0.0298101 3.42881 255 0 255
-15.9342 0.0362284 1.96169 0 255 0
-15.1775 0.0107582 0.462317 0 255 0
-14.2733 -0.000337121 -0.839877 0 255 0
-13.0031 0.0464219 -2.06271 0 255 0
-11.8177 0.011729 -2.92028 255 0 255
-10.8702 -1.00444e-08 -3.53509 255 0 255
-9.35858 -0.0279009 -4.12643 255 0 255
-7.85578 -0.0436282 -4.30389 255 0 255
-6.67743 -1.7646e-08 -4.23669 0 255 0
-5.72621 -0.0171895 -4.23091 255 0 255
-3.94145 -0.00378505 -3.7422 255 0 255
-2.54318 0.00237595 -3.12534 0 255 0
-1.35073 0.0433857 -2.35063 255 0 255
-0.465803 0.00149898 -1.70272 255 0 255
